<svg height="512pt" viewBox="0 0 512 512" width="512pt" xmlns="http://www.w3.org/2000/svg"><path d="m98.488281 7.5h315v497h-315zm0 0" fill="#d8d5ed"/><path d="m383.488281 7.5h30v497h-30zm0 0" fill="#bebade"/><path d="m167.988281 60.488281h176v148h-176zm0 0" fill="#4fc6f5"/><path d="m167.988281 177.238281 52.722657-46.269531c1.382812-1.214844 3.433593-1.285156 4.894531-.164062l101.523437 77.683593h-159.140625zm0 0" fill="#ffbd54"/><path d="m315.203125 100.75c0 10.449219-8.46875 18.917969-18.917969 18.917969-10.445312 0-18.914062-8.46875-18.914062-18.917969 0-10.445312 8.46875-18.914062 18.914062-18.914062 10.449219 0 18.917969 8.46875 18.917969 18.914062zm0 0" fill="#ffd659"/><path d="m290.820312 180.707031 53.167969-46.21875v74h-16.859375zm0 0" fill="#ffa954"/><path d="m11.878906 326.640625c-5.855468-5.859375-5.855468-15.355469 0-21.214844l98.289063-98.285156 21.214843 21.210937-98.289062 98.289063c-5.859375 5.855469-15.355469 5.855469-21.214844 0zm0 0" fill="#484b63"/><path d="m206.175781 436.449219-35.453125-35.453125c-1.910156-1.910156-1.910156-5.011719 0-6.921875l287.148438-287.152344c5.65625-5.652344 14.828125-5.652344 20.480468 0l21.894532 21.894531c5.65625 5.65625 5.65625 14.824219 0 20.480469l-287.148438 287.152344c-1.910156 1.910156-5.011718 1.910156-6.921875 0zm0 0" fill="#ff2c5c"/><path d="m500.246094 128.816406-21.1875-21.1875c5.65625 5.65625 5.65625 14.824219 0 20.480469l-287.148438 287.152344c-1.914062 1.910156-5.011718 1.910156-6.921875 0l21.1875 21.1875c1.910157 1.910156 5.007813 1.910156 6.921875 0l287.148438-287.152344c5.65625-5.65625 5.65625-14.824219 0-20.480469zm0 0" fill="#e62753"/><path d="m206.175781 436.449219-35.453125-35.453125c-1.910156-1.910156-1.910156-5.011719 0-6.921875l17.726563-17.726563 42.375 42.375-17.726563 17.726563c-1.910156 1.910156-5.011718 1.910156-6.921875 0zm0 0" fill="#4fc6f5"/><path d="m209.636719 397.535156-17.726563 17.726563c-1.914062 1.910156-5.011718 1.910156-6.921875 0l21.1875 21.1875c1.910157 1.910156 5.007813 1.910156 6.921875 0l17.726563-17.726563zm0 0" fill="#3bb3e3"/><path d="m144.519531 456.75c5.429688-49.652344 29.570313-52.386719 29.570313-52.386719l28.714844 28.714844s-2.722657 24.148437-52.386719 29.574219c-3.347657.363281-6.265625-2.550782-5.898438-5.902344zm0 0" fill="#ffd659"/><path d="m414.582031 150.210938 21.1875-21.1875 42.371094 42.375-21.183594 21.183593zm0 0" fill="#4fc6f5"/><path d="m435.769531 171.398438 21.1875-21.1875 21.183594 21.1875-21.183594 21.183593zm0 0" fill="#3bb3e3"/><path d="m475.578125 469h-119.179687c-6.855469 0-12.410157-5.554688-12.410157-12.410156v-45.179688c0-6.855468 5.554688-12.410156 12.410157-12.410156h119.179687c6.855469 0 12.410156 5.554688 12.410156 12.410156v45.179688c0 6.855468-5.558593 12.410156-12.410156 12.410156zm0 0" fill="#4fc6f5"/><path d="m475.578125 469h-48.007813v-70h48.007813c6.855469 0 12.410156 5.554688 12.410156 12.410156v45.179688c0 6.855468-5.558593 12.410156-12.410156 12.410156zm0 0" fill="#ff2c5c"/><path d="m475.578125 399h-30c6.855469 0 12.410156 5.554688 12.410156 12.410156v45.179688c0 6.855468-5.554687 12.410156-12.410156 12.410156h30c6.855469 0 12.410156-5.554688 12.410156-12.410156v-45.179688c0-6.855468-5.554687-12.410156-12.410156-12.410156zm0 0" fill="#e62753"/><path d="m397.570312 399h30v70h-30zm0 0" fill="#b5fcff"/><path d="m107.605469 221.761719c-31.191407-31.191407-31.191407-81.945313 0-113.136719 31.191406-31.191406 81.945312-31.191406 113.136719 0 31.195312 31.191406 31.195312 81.945312 0 113.136719-31.191407 31.191406-81.945313 31.191406-113.136719 0zm0 0" fill="#b5fcff"/><path d="m220.742188 108.625c-3.625-3.628906-7.523438-6.8125-11.617188-9.597656 21.15625 31.121094 17.972656 73.953125-9.59375 101.519531s-70.402344 30.753906-101.519531 9.597656c2.78125 4.089844 5.96875 7.992188 9.59375 11.617188 31.191406 31.191406 81.945312 31.191406 113.136719 0 31.195312-31.191407 31.195312-81.945313 0-113.136719zm0 0" fill="#71f6fc"/><path d="m322.703125 100.75c0-14.5625-11.851563-26.414062-26.417969-26.414062-14.5625 0-26.414062 11.851562-26.414062 26.414062 0 14.566406 11.851562 26.417969 26.414062 26.417969 14.566406 0 26.417969-11.851563 26.417969-26.417969zm-37.832031 0c0-6.292969 5.121094-11.414062 11.414062-11.414062 6.296875 0 11.417969 5.121093 11.417969 11.414062 0 6.296875-5.121094 11.417969-11.417969 11.417969-6.292968 0-11.414062-5.121094-11.414062-11.417969zm0 0"/><path d="m505.550781 154.601562c8.570313-8.570312 8.570313-22.515624 0-31.085937l-21.894531-21.894531c-8.570312-8.570313-22.515625-8.570313-31.085938 0l-31.582031 31.578125v-36.949219c0-4.144531-3.359375-7.5-7.5-7.5-4.144531 0-7.5 3.355469-7.5 7.5v51.953125l-54.5 54.5v-142.214844c0-4.140625-3.359375-7.5-7.5-7.5h-120c-4.144531 0-7.5 3.359375-7.5 7.5 0 4.144531 3.355469 7.5 7.5 7.5h112.5v63.082031l-45.96875 39.960938-43.230469-33.082031c-4.128906-12.667969-11.191406-24.578125-21.242187-34.628907-13.8125-13.808593-31.460937-22.40625-50.5625-24.847656v-10.484375h16.5c4.144531 0 7.5-3.355469 7.5-7.5 0-4.140625-3.355469-7.5-7.5-7.5h-24c-4.140625 0-7.5 3.359375-7.5 7.5v17.332031c-20.320313.832032-39.386719 8.550782-54.5 22.039063v-84.859375h300v49c0 4.144531 3.359375 7.5 7.5 7.5 4.144531 0 7.5-3.355469 7.5-7.5v-56.5c0-4.144531-3.355469-7.5-7.5-7.5h-315c-4.140625 0-7.5 3.355469-7.5 7.5v109.726562c-19.019531 29.011719-19.019531 66.921876 0 95.929688v2.558594l-84.410156 84.414062c-8.765625 8.761719-8.765625 23.03125 0 31.8125 4.386719 4.386719 10.148437 6.582032 15.914062 6.582032 5.761719 0 11.527344-2.195313 15.914063-6.582032l52.585937-52.589844v136.148438c0 4.144531 3.355469 7.5 7.5 7.5 4.140625 0 7.5-3.355469 7.5-7.5v-151.148438l20.273438-20.277343c11.675781 5.609375 24.5625 8.582031 37.914062 8.582031 23.398438 0 45.371094-9.089844 61.871094-25.59375 3.484375-3.480469 6.589844-7.191406 9.359375-11.074219h102.792969l-50.476563 50.480469h-144.734375c-4.144531 0-7.5 3.355469-7.5 7.5s3.355469 7.5 7.5 7.5h129.734375l-18.332031 18.332031h-111.402344c-4.144531 0-7.5 3.355469-7.5 7.5 0 4.140625 3.355469 7.5 7.5 7.5h96.402344l-18.328125 18.328125h-78.074219c-4.144531 0-7.5 3.355469-7.5 7.5 0 4.144532 3.355469 7.5 7.5 7.5h63.074219l-18.339844 18.339844h-44.734375c-4.144531 0-7.5 3.355469-7.5 7.5s3.355469 7.5 7.5 7.5h29.734375l-7.304687 7.304688c-3.414063 3.414062-4.402344 8.34375-2.988281 12.648437-9.265626 6.167969-21.660157 20.652344-25.367188 54.511719-.421875 3.867187.929688 7.683594 3.707031 10.460937 2.445313 2.445313 5.691407 3.789063 9.070313 3.789063.464844 0 .929687-.027344 1.394531-.078125 33.863281-3.699219 48.347656-16.09375 54.511719-25.363281 1.261718.414062 2.574218.632812 3.890625.632812 3.171875 0 6.347656-1.207031 8.761719-3.621094l93.625-93.625h50.964843c4.140625 0 7.5-3.355468 7.5-7.5 0-4.140625-3.359375-7.5-7.5-7.5h-35.96875l18.332031-18.328125h17.636719c4.140625 0 7.5-3.359375 7.5-7.5 0-4.144531-3.359375-7.5-7.5-7.5h-2.636719l45.636719-45.636719v137.335938h-49.589843c-10.980469 0-19.910157 8.933594-19.910157 19.910156v45.179688c0 10.980468 8.929688 19.910156 19.910157 19.910156h49.589843v20.5h-300v-48.5c0-4.144531-3.359375-7.5-7.5-7.5-4.144531 0-7.5 3.355469-7.5 7.5v56c0 4.144531 3.355469 7.5 7.5 7.5h315c4.140625 0 7.5-3.355469 7.5-7.5v-28h54.589844c10.976563 0 19.910156-8.933594 19.910156-19.910156v-45.179688c0-10.980468-8.933593-19.910156-19.910156-19.910156h-54.589844v-152.335938zm-154.0625 301.988282v-45.179688c0-2.707031 2.203125-4.910156 4.910157-4.910156h33.671874v55h-33.671874c-2.707032 0-4.910157-2.203125-4.910157-4.910156zm53.582031-50.089844h15v55h-15zm75.417969 4.910156v45.179688c0 2.707031-2.203125 4.910156-4.910156 4.910156h-40.507813v-55h40.507813c2.707031 0 4.910156 2.203125 4.910156 4.910156zm-249.664062-3.296875-31.769531-31.765625 215.53125-215.53125 31.765624 31.765625zm-21.1875 21.1875-31.769531-31.765625 10.582031-10.582031 31.765625 31.769531zm226.136719-289.671875 31.765624 31.765625-10.578124 10.582031-31.765626-31.765624zm27.402343-27.402344c2.722657-2.722656 7.152344-2.71875 9.871094 0l21.894531 21.894532c2.722656 2.722656 2.722656 7.152344 0 9.871094l-16.792968 16.796874-31.765626-31.765624zm-126.6875 38.71875v50.042969h-6.820312l-26.988281-20.652343zm-243.277343 104.96875c-.015626.015626-.03125.03125-.050782.050782l-65.367187 65.371094c-1.417969 1.417968-3.300781 2.199218-5.304688 2.199218-2.007812 0-3.890625-.78125-5.304687-2.191406-2.921875-2.929688-2.925782-7.6875-.003906-10.609375l84.414062-84.414063c.238281.246094.464844.5.707031.746094 3.34375 3.339844 6.917969 6.363282 10.675781 9.082032zm70.964843-18.257812c-19.390625 0-37.597656-7.527344-51.265625-21.199219-28.269531-28.265625-28.269531-74.261719 0-102.527343 13.667969-13.671876 31.875-21.199219 51.265625-21.199219s37.597657 7.527343 51.265625 21.199219c28.265625 28.265624 28.265625 74.261718 0 102.527343-13.667968 13.671875-31.875 21.199219-51.265625 21.199219zm79.824219-36.667969c5.789062-12.953125 8.28125-27.027343 7.464844-40.953125l53.515625 40.953125zm-92.023438 256.578125c0-.003906 0-.003906 0-.003906zm.316407-2.6875c3.785156-29.484375 14.554687-38.941406 19.847656-41.859375l5.703125 5.703125-8.820312 8.820313c-2.929688 2.929687-2.929688 7.679687 0 10.605469 1.464843 1.464843 3.382812 2.199218 5.300781 2.199218 1.921875 0 3.839843-.734375 5.304687-2.199218l8.820313-8.820313 5.738281 5.734375c-2.855469 5.183594-12.277344 16.019531-41.894531 19.816406zm0 0"/></svg>